<?xml version="1.0" encoding="UTF-8" standalone="no"?>
<!-- Created with Inkscape (http://www.inkscape.org/) -->

<svg
   width="210mm"
   height="297mm"
   viewBox="0 0 210 297"
   version="1.1"
   id="svg5"
   inkscape:version="1.1.2 (0a00cf5339, 2022-02-04)"
   sodipodi:docname="drawing.svg"
   xmlns:inkscape="http://www.inkscape.org/namespaces/inkscape"
   xmlns:sodipodi="http://sodipodi.sourceforge.net/DTD/sodipodi-0.dtd"
   xmlns="http://www.w3.org/2000/svg"
   xmlns:svg="http://www.w3.org/2000/svg">
  <sodipodi:namedview
     id="namedview7"
     pagecolor="#ffffff"
     bordercolor="#666666"
     borderopacity="1.0"
     inkscape:pageshadow="2"
     inkscape:pageopacity="0.0"
     inkscape:pagecheckerboard="0"
     inkscape:document-units="mm"
     showgrid="false"
     inkscape:zoom="0.24630192"
     inkscape:cx="444.57632"
     inkscape:cy="-79.171126"
     inkscape:window-width="1846"
     inkscape:window-height="1016"
     inkscape:window-x="0"
     inkscape:window-y="0"
     inkscape:window-maximized="1"
     inkscape:current-layer="layer1" />
  <defs
     id="defs2" />
  <g
     inkscape:label="Layer 1"
     inkscape:groupmode="layer"
     id="layer1">
    <path
       id="path31"
       style="fill:#71c837;fill-rule:evenodd;stroke-width:0.264583"
       d="m 103.36306,91.613362 a 19.19747,19.19747 0 0 0 -19.197792,19.197278 19.19747,19.19747 0 0 0 19.197792,19.19728 19.19747,19.19747 0 0 0 19.19728,-19.19728 19.19747,19.19747 0 0 0 -19.19728,-19.197278 z m 0,5.135604 a 14.061475,14.061475 0 0 1 14.06115,14.061674 14.061475,14.061475 0 0 1 -14.06115,14.06167 14.061475,14.061475 0 0 1 -14.061672,-14.06167 14.061475,14.061475 0 0 1 14.061672,-14.061674 z m -5.2e-4,9.464534 a 4.5973386,4.5973386 0 0 0 -4.59713,4.59714 4.5973386,4.5973386 0 0 0 4.59713,4.59713 4.5973386,4.5973386 0 0 0 4.59765,-4.59713 4.5973386,4.5973386 0 0 0 -4.59765,-4.59714 z" />
    <path
       id="path31-3-6"
       style="fill:#2a7fff;fill-rule:evenodd;stroke-width:0.264583"
       d="M 29.809699,43.321311 A 19.197469,19.197469 0 0 0 10.61191,62.518588 19.197469,19.197469 0 0 0 29.809699,81.715865 19.197469,19.197469 0 0 0 49.006979,62.518588 19.197469,19.197469 0 0 0 29.809699,43.321311 Z m 0,5.135604 A 14.061474,14.061474 0 0 1 43.870859,62.518588 14.061474,14.061474 0 0 1 29.809699,76.580263 14.061474,14.061474 0 0 1 15.748031,62.518588 14.061474,14.061474 0 0 1 29.809699,48.456915 Z m 6.88589,5.324739 c -0.61045,-0.0111 -1.21421,0.272296 -1.59267,0.811837 l -7.34942,10.477396 -3.136244,-5.308203 c -0.53635,-0.907869 -1.699207,-1.207106 -2.607074,-0.67076 l -0.420648,0.248564 c -0.90787,0.536346 -1.207627,1.699208 -0.671277,2.607076 l 4.945953,8.371582 c 0.53635,0.907869 1.69921,1.206589 2.60708,0.670243 l 0.42116,-0.248564 c 0.39456,-0.233098 0.6736,-0.584482 0.81959,-0.981852 l 8.90798,-12.698966 c 0.60553,-0.863265 0.39766,-2.045474 -0.46561,-2.651001 l -0.39997,-0.28112 c -0.32373,-0.227072 -0.69258,-0.339573 -1.05885,-0.346232 z m -3.6959,2.909383 -0.0227,0.03462 h 0.0227 z" />
    <path
       id="path31-3-6-6"
       style="fill:#deaa87;fill-rule:evenodd;stroke-width:0.264583"
       d="m 128.20198,43.32131 a 19.19747,19.19747 0 0 0 -19.1978,19.197277 19.19747,19.19747 0 0 0 19.1978,19.197278 19.19747,19.19747 0 0 0 19.19727,-19.197278 19.19747,19.19747 0 0 0 -19.19727,-19.197277 z m 0,5.135604 A 14.061474,14.061474 0 0 1 142.26313,62.518587 14.061474,14.061474 0 0 1 128.20198,76.58026 14.061474,14.061474 0 0 1 114.1403,62.518587 14.061474,14.061474 0 0 1 128.20198,48.456914 Z m -0.0419,3.779614 -3.76101,5.517492 -6.4332,1.97714 4.08554,5.281848 -0.10801,6.729305 6.28592,-2.253609 6.36654,2.182296 -0.2005,-6.674528 4.04264,-5.381067 -6.40994,-1.87172 z m 3.23184,4.454509 -0.0227,0.03462 h 0.0227 z" />
    <path
       id="path31-3-6-3"
       style="fill:#ff5599;fill-rule:evenodd;stroke-width:0.264583"
       d="M 177.3981,43.321311 A 19.19747,19.19747 0 0 0 158.20031,62.518588 19.19747,19.19747 0 0 0 177.3981,81.715865 19.19747,19.19747 0 0 0 196.59538,62.518588 19.19747,19.19747 0 0 0 177.3981,43.321311 Z m 0,5.135604 A 14.061474,14.061474 0 0 1 191.45926,62.518588 14.061474,14.061474 0 0 1 177.3981,76.580263 14.061474,14.061474 0 0 1 163.33643,62.518588 14.061474,14.061474 0 0 1 177.3981,48.456915 Z m -0.30386,2.291333 c -1.28833,0 -2.32544,0.930756 -2.32544,2.087211 v 11.951725 c 0,1.156453 1.03712,2.087211 2.32544,2.087211 h 0.60772 c 1.28833,0 2.32544,-0.930758 2.32544,-2.087211 V 52.835459 c 0,-1.156455 -1.03711,-2.087211 -2.32544,-2.087211 z m 3.49384,5.942789 -0.0227,0.03462 h 0.0227 z m -3.18998,12.694832 a 2.731263,2.4516848 0 0 0 -2.7311,2.452047 2.731263,2.4516848 0 0 0 2.7311,2.45153 2.731263,2.4516848 0 0 0 2.7311,-2.45153 2.731263,2.4516848 0 0 0 -2.7311,-2.452047 z" />
    <path
       id="path31-3-6-5"
       style="fill:#37c8ab;fill-rule:evenodd;stroke-width:0.264583"
       d="M 79.005839,43.32131 A 19.19747,19.19747 0 0 0 59.808049,62.518587 19.19747,19.19747 0 0 0 79.005839,81.715865 19.19747,19.19747 0 0 0 98.203119,62.518587 19.19747,19.19747 0 0 0 79.005839,43.32131 Z m 0,5.135604 A 14.061474,14.061474 0 0 1 93.066999,62.518587 14.061474,14.061474 0 0 1 79.005839,76.58026 14.061474,14.061474 0 0 1 64.944169,62.518587 14.061474,14.061474 0 0 1 79.005839,48.456914 Z m -5.72678,5.082894 c -1.30683,0 -2.35903,1.051689 -2.35903,2.358512 0,1.306824 1.0522,2.359545 2.35903,2.359545 h 11.45253 c 1.30682,0 2.35903,-1.052721 2.35903,-2.359545 0,-1.306823 -1.05221,-2.358512 -2.35903,-2.358512 z m 0,6.620267 c -1.30683,0 -2.35903,1.052206 -2.35903,2.359029 0,1.306822 1.0522,2.359029 2.35903,2.359029 h 11.45253 c 1.30682,0 2.35903,-1.052207 2.35903,-2.359029 0,-1.306823 -1.05221,-2.359029 -2.35903,-2.359029 z m 0,6.619751 c -1.30683,0 -2.35903,1.052207 -2.35903,2.359029 0,1.306823 1.0522,2.359029 2.35903,2.359029 h 11.45253 c 1.30682,0 2.35903,-1.052206 2.35903,-2.359029 0,-1.306822 -1.05221,-2.359029 -2.35903,-2.359029 z"
       inkscape:export-filename="/home/ns/Desktop/GitRepo/JS-Instructor/js-instructor/assets/d.png"
       inkscape:export-xdpi="10.5847"
       inkscape:export-ydpi="10.5847" />
    <path
       id="path31-7"
       style="fill:#ffcc00;fill-rule:evenodd;stroke-width:0.264583"
       d="m 103.36306,132.85873 a 19.19747,19.19747 0 0 0 -19.197791,19.19728 19.19747,19.19747 0 0 0 19.197791,19.19728 19.19747,19.19747 0 0 0 19.19727,-19.19728 19.19747,19.19747 0 0 0 -19.19727,-19.19728 z m 0,5.13561 a 14.061475,14.061475 0 0 1 14.06115,14.06167 14.061475,14.061475 0 0 1 -14.06115,14.06167 14.061475,14.061475 0 0 1 -14.061671,-14.06167 14.061475,14.061475 0 0 1 14.061671,-14.06167 z m -5.2e-4,3.99613 a 4.5973386,4.5973386 0 0 0 -4.597129,4.59766 4.5973386,4.5973386 0 0 0 4.597129,4.59713 4.5973386,4.5973386 0 0 0 4.59765,-4.59713 4.5973386,4.5973386 0 0 0 -4.59765,-4.59766 z m 0,10.9368 a 4.5973386,4.5973386 0 0 0 -4.597129,4.59766 4.5973386,4.5973386 0 0 0 4.597129,4.59713 4.5973386,4.5973386 0 0 0 4.59765,-4.59713 4.5973386,4.5973386 0 0 0 -4.59765,-4.59766 z" />
    <path
       id="path31-5"
       style="fill:#ff7f2a;fill-rule:evenodd;stroke-width:0.264583"
       d="m 103.36306,174.1041 a 19.19747,19.19747 0 0 0 -19.197791,19.19728 19.19747,19.19747 0 0 0 19.197791,19.19727 19.19747,19.19747 0 0 0 19.19727,-19.19727 19.19747,19.19747 0 0 0 -19.19727,-19.19728 z m 0,5.13561 a 14.061475,14.061475 0 0 1 14.06115,14.06167 14.061475,14.061475 0 0 1 -14.06115,14.06167 14.061475,14.061475 0 0 1 -14.06167,-14.06167 14.061475,14.061475 0 0 1 14.06167,-14.06167 z m -5.2e-4,3.3693 a 4.5973386,4.5973386 0 0 0 -4.597129,4.59713 4.5973386,4.5973386 0 0 0 4.597129,4.59766 4.5973386,4.5973386 0 0 0 4.59714,-4.59766 4.5973386,4.5973386 0 0 0 -4.59714,-4.59713 z m -5.586734,10.0738 a 4.5973386,4.5973386 0 0 0 -4.597652,4.59714 4.5973386,4.5973386 0 0 0 4.597652,4.59765 4.5973386,4.5973386 0 0 0 4.597134,-4.59765 4.5973386,4.5973386 0 0 0 -4.597134,-4.59714 z m 11.173474,0 a 4.5973386,4.5973386 0 0 0 -4.59714,4.59714 4.5973386,4.5973386 0 0 0 4.59714,4.59765 4.5973386,4.5973386 0 0 0 4.59765,-4.59765 4.5973386,4.5973386 0 0 0 -4.59765,-4.59714 z"
       inkscape:export-filename="/home/ns/Desktop/GitRepo/JS-Instructor/js-instructor/assets/3.png"
       inkscape:export-xdpi="10.5847"
       inkscape:export-ydpi="10.5847" />
    <path
       id="path31-5-7"
       style="fill:#ff5555;fill-rule:evenodd;stroke-width:0.264583"
       d="m 103.36306,215.34947 a 19.19747,19.19747 0 0 0 -19.197791,19.19728 19.19747,19.19747 0 0 0 19.197791,19.19728 19.19747,19.19747 0 0 0 19.19727,-19.19728 19.19747,19.19747 0 0 0 -19.19727,-19.19728 z m 0,5.13561 a 14.061475,14.061475 0 0 1 14.06115,14.06167 14.061475,14.061475 0 0 1 -14.06115,14.06167 14.061475,14.061475 0 0 1 -14.06167,-14.06167 14.061475,14.061475 0 0 1 14.06167,-14.06167 z m -5.31957,4.09691 a 4.5973383,4.5973383 0 0 0 -4.597651,4.59713 4.5973383,4.5973383 0 0 0 4.597651,4.59765 4.5973383,4.5973383 0 0 0 4.59713,-4.59765 4.5973383,4.5973383 0 0 0 -4.59713,-4.59713 z m 10.63862,0 a 4.5973383,4.5973383 0 0 0 -4.59765,4.59713 4.5973383,4.5973383 0 0 0 4.59765,4.59765 4.5973383,4.5973383 0 0 0 4.59765,-4.59765 4.5973383,4.5973383 0 0 0 -4.59765,-4.59713 z m -10.63862,10.73474 a 4.5973383,4.5973383 0 0 0 -4.597651,4.59765 4.5973383,4.5973383 0 0 0 4.597651,4.59765 4.5973383,4.5973383 0 0 0 4.59713,-4.59765 4.5973383,4.5973383 0 0 0 -4.59713,-4.59765 z m 10.63862,0 a 4.5973383,4.5973383 0 0 0 -4.59765,4.59765 4.5973383,4.5973383 0 0 0 4.59765,4.59765 4.5973383,4.5973383 0 0 0 4.59765,-4.59765 4.5973383,4.5973383 0 0 0 -4.59765,-4.59765 z" />
  </g>
</svg>
