<?xml version="1.0" encoding="UTF-8" standalone="no"?>
<!-- Created with Inkscape (http://www.inkscape.org/) -->

<svg
   width="210mm"
   height="297mm"
   viewBox="0 0 210 297"
   version="1.1"
   id="svg5"
   inkscape:version="1.1.2 (0a00cf5339, 2022-02-04)"
   sodipodi:docname="drawing.svg"
   xmlns:inkscape="http://www.inkscape.org/namespaces/inkscape"
   xmlns:sodipodi="http://sodipodi.sourceforge.net/DTD/sodipodi-0.dtd"
   xmlns="http://www.w3.org/2000/svg"
   xmlns:svg="http://www.w3.org/2000/svg">
  <sodipodi:namedview
     id="namedview7"
     pagecolor="#ffffff"
     bordercolor="#666666"
     borderopacity="1.0"
     inkscape:pageshadow="2"
     inkscape:pageopacity="0.0"
     inkscape:pagecheckerboard="0"
     inkscape:document-units="mm"
     showgrid="false"
     inkscape:zoom="0.34832351"
     inkscape:cx="242.79543"
     inkscape:cy="392.29682"
     inkscape:window-width="1846"
     inkscape:window-height="1016"
     inkscape:window-x="0"
     inkscape:window-y="0"
     inkscape:window-maximized="1"
     inkscape:current-layer="layer1"
     inkscape:rotation="22" />
  <defs
     id="defs2" />
  <g
     inkscape:label="Layer 1"
     inkscape:groupmode="layer"
     id="layer1">
    <path
       id="path31"
       style="fill:#71c837;fill-rule:evenodd;stroke-width:0.264583"
       d="M 103.57707,61.677771 A 19.19747,19.19747 0 0 0 84.379273,80.875049 19.19747,19.19747 0 0 0 103.57707,100.07233 19.19747,19.19747 0 0 0 122.77435,80.875049 19.19747,19.19747 0 0 0 103.57707,61.677771 Z m 0,5.135604 A 14.061475,14.061475 0 0 1 117.63822,80.875049 14.061475,14.061475 0 0 1 103.57707,94.936723 14.061475,14.061475 0 0 1 89.515393,80.875049 14.061475,14.061475 0 0 1 103.57707,66.813375 Z m -5.2e-4,9.464538 a 4.5973386,4.5973386 0 0 0 -4.597135,4.597136 4.5973386,4.5973386 0 0 0 4.597135,4.597135 4.5973386,4.5973386 0 0 0 4.59765,-4.597135 4.5973386,4.5973386 0 0 0 -4.59765,-4.597136 z" />
    <path
       id="path31-3-6"
       style="fill:#0066ff;fill-rule:evenodd;stroke-width:0.264583"
       d="M 104.69901,-2.9827818 A 19.19747,19.19747 0 0 0 85.501213,16.214495 19.19747,19.19747 0 0 0 104.69901,35.411774 19.19747,19.19747 0 0 0 123.89628,16.214495 19.19747,19.19747 0 0 0 104.69901,-2.9827818 Z m 0,5.1356038 A 14.061475,14.061475 0 0 1 118.76017,16.214495 14.061475,14.061475 0 0 1 104.69901,30.276169 14.061475,14.061475 0 0 1 90.637334,16.214495 14.061475,14.061475 0 0 1 104.69901,2.152822 Z m 7.11584,4.9872923 c -1.06133,-0.00767 -2.16217,0.56886 -2.8391,1.5968019 l -5.79138,8.7942948 -3.06493,-4.358391 c -0.672238,-0.9559 -2.01325,-1.205239 -3.007048,-0.558622 l -1.199412,0.780314 c -0.993781,0.646619 -1.252059,1.936946 -0.579808,2.892847 l 5.386238,7.658964 c 0.12604,0.179232 0.27492,0.333704 0.44131,0.461987 0,0 5.2e-4,5.17e-4 5.2e-4,5.17e-4 0.16607,0.189619 0.36233,0.357212 0.58859,0.49506 1.35226,0.823897 3.23372,0.283376 4.21835,-1.211812 l 7.88944,-11.980664 c 0.98463,-1.495188 0.68875,-3.3624102 -0.66352,-4.1863073 -0.42258,-0.2574679 -0.89682,-0.3815035 -1.37925,-0.3849894 z"
       inkscape:export-filename="/home/ns/Desktop/GitRepo/JS-Instructor/js-instructor/assets/c.png"
       inkscape:export-xdpi="10.5847"
       inkscape:export-ydpi="10.5847" />
    <path
       id="path31-3-6-3"
       style="fill:#ff5555;fill-rule:evenodd;stroke-width:0.264583"
       d="M 253.00471,-2.9827813 A 19.19747,19.19747 0 0 0 233.80692,16.214496 19.19747,19.19747 0 0 0 253.00471,35.411774 19.19747,19.19747 0 0 0 272.20198,16.214496 19.19747,19.19747 0 0 0 253.00471,-2.9827813 Z m 0,5.1356039 A 14.061474,14.061474 0 0 1 267.06586,16.214496 14.061474,14.061474 0 0 1 253.00471,30.276169 14.061474,14.061474 0 0 1 238.94304,16.214496 14.061474,14.061474 0 0 1 253.00471,2.1528226 Z m 6.1867,4.8865235 c -0.75919,0 -1.51845,0.2906236 -2.10013,0.8722981 l -4.08709,4.0870888 -4.08657,-4.0870888 c -0.58166,-0.5816745 -1.34101,-0.8717814 -2.10013,-0.8717814 -0.75911,0 -1.51845,0.2901069 -2.10013,0.8717814 l -0.0155,0.016537 c -1.16335,1.1633459 -1.16335,3.0358818 0,4.1992268 l 4.08709,4.087088 -4.08709,4.087606 c -1.16335,1.163349 -1.16335,3.035878 0,4.199227 l 0.016,0.01602 c 1.16335,1.163349 3.03639,1.163349 4.19974,0 l 4.08709,-4.087089 4.08657,4.087089 c 1.16335,1.163349 3.03691,1.163349 4.20026,0 l 0.0155,-0.01602 c 1.16335,-1.163349 1.16335,-3.035878 0,-4.199227 l -4.08709,-4.087606 4.08709,-4.087088 c 1.16335,-1.163345 1.16335,-3.0358809 0,-4.1992268 l -0.0155,-0.016537 C 260.70987,7.3299697 259.9506,7.0393461 259.19141,7.0393461 Z"
       inkscape:export-filename="/home/ns/Desktop/GitRepo/JS-Instructor/js-instructor/assets/n.png"
       inkscape:export-xdpi="10.5847"
       inkscape:export-ydpi="10.5847" />
    <path
       id="path31-3-6-5"
       style="fill:#37c8ab;fill-rule:evenodd;stroke-width:0.264583"
       d="M 154.13424,-2.9827815 A 19.19747,19.19747 0 0 0 134.93645,16.214496 19.19747,19.19747 0 0 0 154.13424,35.411774 19.19747,19.19747 0 0 0 173.33152,16.214496 19.19747,19.19747 0 0 0 154.13424,-2.9827815 Z m 0,5.1356037 A 14.061474,14.061474 0 0 1 168.1954,16.214496 14.061474,14.061474 0 0 1 154.13424,30.276169 14.061474,14.061474 0 0 1 140.07257,16.214496 14.061474,14.061474 0 0 1 154.13424,2.1528222 Z m -5.72678,5.0828939 c -1.30683,0 -2.35903,1.0516897 -2.35903,2.3585122 0,1.3068237 1.0522,2.3595457 2.35903,2.3595457 h 11.45253 c 1.30682,0 2.35903,-1.052722 2.35903,-2.3595457 0,-1.3068225 -1.05221,-2.3585122 -2.35903,-2.3585122 z m 0,6.6202679 c -1.30683,0 -2.35903,1.052206 -2.35903,2.359029 0,1.306822 1.0522,2.359029 2.35903,2.359029 h 11.45253 c 1.30682,0 2.35903,-1.052207 2.35903,-2.359029 0,-1.306823 -1.05221,-2.359029 -2.35903,-2.359029 z m 0,6.619751 c -1.30683,0 -2.35903,1.052207 -2.35903,2.359029 0,1.306823 1.0522,2.359029 2.35903,2.359029 h 11.45253 c 1.30682,0 2.35903,-1.052206 2.35903,-2.359029 0,-1.306822 -1.05221,-2.359029 -2.35903,-2.359029 z"
       inkscape:export-filename="/home/ns/Desktop/GitRepo/JS-Instructor/js-instructor/assets/d.png"
       inkscape:export-xdpi="10.5847"
       inkscape:export-ydpi="10.5847" />
    <path
       id="path31-3-6-5-3"
       style="fill:#9d93ac;fill-rule:evenodd;stroke-width:0.264583"
       d="m 203.56948,-2.982781 a 19.197469,19.197469 0 0 0 -19.19779,19.197277 19.197469,19.197469 0 0 0 19.19779,19.197278 19.197469,19.197469 0 0 0 19.19728,-19.197278 19.197469,19.197469 0 0 0 -19.19728,-19.197277 z m 0,5.1356037 A 14.061474,14.061474 0 0 1 217.63064,16.214496 14.061474,14.061474 0 0 1 203.56948,30.276171 14.061474,14.061474 0 0 1 189.50781,16.214496 14.061474,14.061474 0 0 1 203.56948,2.1528227 Z m -7.87859,4.8736043 c -0.79122,0 -1.42834,0.6371135 -1.42834,1.4283364 v 8.2289556 c 0,0.791223 0.63712,1.428336 1.42834,1.428336 h 1.06144 v -7.18199 c 0,-0.791223 0.63658,-1.4283371 1.42781,-1.4283369 h 7.16856 V 8.4547634 c 0,-0.7912229 -0.63712,-1.4283364 -1.42834,-1.4283364 z m 3.6313,3.535185 c -0.79122,0 -1.42833,0.637113 -1.42833,1.428336 v 8.228955 c 0,0.791222 0.63711,1.428337 1.42833,1.428337 h 1.06092 v -7.181991 c 0,-0.791223 0.63712,-1.428336 1.42834,-1.428336 H 208.98 v -1.046965 c 0,-0.791223 -0.6371,-1.428336 -1.42834,-1.428336 z m 3.89589,3.754809 c -0.79122,0 -1.42834,0.637114 -1.42834,1.428337 v 8.229471 c 0,0.791223 0.63712,1.428337 1.42834,1.428337 h 8.22947 c 0.79122,0 1.42782,-0.637114 1.42782,-1.428337 v -8.229471 c 0,-0.791223 -0.6366,-1.428337 -1.42782,-1.428337 z"
       inkscape:export-filename="/home/ns/Desktop/GitRepo/JS-Instructor/js-instructor/assets/e.png"
       inkscape:export-xdpi="10.5847"
       inkscape:export-ydpi="10.5847" />
    <path
       id="path31-7"
       style="fill:#ffcc00;fill-rule:evenodd;stroke-width:0.264583"
       d="m 103.57707,102.92314 a 19.19747,19.19747 0 0 0 -19.197796,19.19728 19.19747,19.19747 0 0 0 19.197796,19.19728 19.19747,19.19747 0 0 0 19.19727,-19.19728 19.19747,19.19747 0 0 0 -19.19727,-19.19728 z m 0,5.13561 a 14.061475,14.061475 0 0 1 14.06115,14.06167 14.061475,14.061475 0 0 1 -14.06115,14.06167 14.061475,14.061475 0 0 1 -14.061676,-14.06167 14.061475,14.061475 0 0 1 14.061676,-14.06167 z m -5.2e-4,3.99613 a 4.5973386,4.5973386 0 0 0 -4.597134,4.59766 4.5973386,4.5973386 0 0 0 4.597134,4.59713 4.5973386,4.5973386 0 0 0 4.59765,-4.59713 4.5973386,4.5973386 0 0 0 -4.59765,-4.59766 z m 0,10.9368 a 4.5973386,4.5973386 0 0 0 -4.597134,4.59766 4.5973386,4.5973386 0 0 0 4.597134,4.59713 4.5973386,4.5973386 0 0 0 4.59765,-4.59713 4.5973386,4.5973386 0 0 0 -4.59765,-4.59766 z" />
    <path
       id="path31-5"
       style="fill:#ff7f2a;fill-rule:evenodd;stroke-width:0.264583"
       d="m 103.57707,144.16851 a 19.19747,19.19747 0 0 0 -19.197796,19.19728 19.19747,19.19747 0 0 0 19.197796,19.19727 19.19747,19.19747 0 0 0 19.19727,-19.19727 19.19747,19.19747 0 0 0 -19.19727,-19.19728 z m 0,5.13561 a 14.061475,14.061475 0 0 1 14.06115,14.06167 14.061475,14.061475 0 0 1 -14.06115,14.06167 14.061475,14.061475 0 0 1 -14.061675,-14.06167 14.061475,14.061475 0 0 1 14.061675,-14.06167 z m -5.2e-4,3.3693 a 4.5973386,4.5973386 0 0 0 -4.597134,4.59713 4.5973386,4.5973386 0 0 0 4.597134,4.59766 4.5973386,4.5973386 0 0 0 4.59714,-4.59766 4.5973386,4.5973386 0 0 0 -4.59714,-4.59713 z m -5.586739,10.0738 a 4.5973386,4.5973386 0 0 0 -4.597652,4.59714 4.5973386,4.5973386 0 0 0 4.597652,4.59765 4.5973386,4.5973386 0 0 0 4.597139,-4.59765 4.5973386,4.5973386 0 0 0 -4.597139,-4.59714 z m 11.173479,0 a 4.5973386,4.5973386 0 0 0 -4.59714,4.59714 4.5973386,4.5973386 0 0 0 4.59714,4.59765 4.5973386,4.5973386 0 0 0 4.59765,-4.59765 4.5973386,4.5973386 0 0 0 -4.59765,-4.59714 z"
       inkscape:export-filename="/home/ns/Desktop/GitRepo/JS-Instructor/js-instructor/assets/3.png"
       inkscape:export-xdpi="10.5847"
       inkscape:export-ydpi="10.5847" />
    <path
       id="path31-5-7"
       style="fill:#ff5555;fill-rule:evenodd;stroke-width:0.264583"
       d="m 103.57707,185.41388 a 19.19747,19.19747 0 0 0 -19.197796,19.19728 19.19747,19.19747 0 0 0 19.197796,19.19728 19.19747,19.19747 0 0 0 19.19727,-19.19728 19.19747,19.19747 0 0 0 -19.19727,-19.19728 z m 0,5.13561 a 14.061475,14.061475 0 0 1 14.06115,14.06167 14.061475,14.061475 0 0 1 -14.06115,14.06167 14.061475,14.061475 0 0 1 -14.061675,-14.06167 14.061475,14.061475 0 0 1 14.061675,-14.06167 z m -5.319575,4.09691 a 4.5973383,4.5973383 0 0 0 -4.597651,4.59713 4.5973383,4.5973383 0 0 0 4.597651,4.59765 4.5973383,4.5973383 0 0 0 4.597135,-4.59765 4.5973383,4.5973383 0 0 0 -4.597135,-4.59713 z m 10.638625,0 a 4.5973383,4.5973383 0 0 0 -4.59765,4.59713 4.5973383,4.5973383 0 0 0 4.59765,4.59765 4.5973383,4.5973383 0 0 0 4.59765,-4.59765 4.5973383,4.5973383 0 0 0 -4.59765,-4.59713 z m -10.638625,10.73474 a 4.5973383,4.5973383 0 0 0 -4.597651,4.59765 4.5973383,4.5973383 0 0 0 4.597651,4.59765 4.5973383,4.5973383 0 0 0 4.597135,-4.59765 4.5973383,4.5973383 0 0 0 -4.597135,-4.59765 z m 10.638625,0 a 4.5973383,4.5973383 0 0 0 -4.59765,4.59765 4.5973383,4.5973383 0 0 0 4.59765,4.59765 4.5973383,4.5973383 0 0 0 4.59765,-4.59765 4.5973383,4.5973383 0 0 0 -4.59765,-4.59765 z" />
  </g>
</svg>
