<?xml version="1.0" encoding="UTF-8" standalone="no"?>
<!-- Created with Inkscape (http://www.inkscape.org/) -->

<svg
   width="210mm"
   height="297mm"
   viewBox="0 0 210 297"
   version="1.1"
   id="svg5"
   inkscape:version="1.1.2 (0a00cf5339, 2022-02-04)"
   sodipodi:docname="drawing.svg"
   xmlns:inkscape="http://www.inkscape.org/namespaces/inkscape"
   xmlns:sodipodi="http://sodipodi.sourceforge.net/DTD/sodipodi-0.dtd"
   xmlns="http://www.w3.org/2000/svg"
   xmlns:svg="http://www.w3.org/2000/svg">
  <sodipodi:namedview
     id="namedview7"
     pagecolor="#ffffff"
     bordercolor="#666666"
     borderopacity="1.0"
     inkscape:pageshadow="2"
     inkscape:pageopacity="0.0"
     inkscape:pagecheckerboard="0"
     inkscape:document-units="mm"
     showgrid="false"
     inkscape:zoom="0.34832351"
     inkscape:cx="551.21171"
     inkscape:cy="322.97561"
     inkscape:window-width="1846"
     inkscape:window-height="1016"
     inkscape:window-x="0"
     inkscape:window-y="0"
     inkscape:window-maximized="1"
     inkscape:current-layer="layer1" />
  <defs
     id="defs2" />
  <g
     inkscape:label="Layer 1"
     inkscape:groupmode="layer"
     id="layer1">
    <path
       id="path31"
       style="fill:#71c837;fill-rule:evenodd;stroke-width:0.264583"
       d="M 103.57707,61.677771 A 19.19747,19.19747 0 0 0 84.379273,80.875049 19.19747,19.19747 0 0 0 103.57707,100.07233 19.19747,19.19747 0 0 0 122.77435,80.875049 19.19747,19.19747 0 0 0 103.57707,61.677771 Z m 0,5.135604 A 14.061475,14.061475 0 0 1 117.63822,80.875049 14.061475,14.061475 0 0 1 103.57707,94.936723 14.061475,14.061475 0 0 1 89.515393,80.875049 14.061475,14.061475 0 0 1 103.57707,66.813375 Z m -5.2e-4,9.464538 a 4.5973386,4.5973386 0 0 0 -4.597135,4.597136 4.5973386,4.5973386 0 0 0 4.597135,4.597135 4.5973386,4.5973386 0 0 0 4.59765,-4.597135 4.5973386,4.5973386 0 0 0 -4.59765,-4.597136 z" />
    <path
       id="path31-7"
       style="fill:#ffcc00;fill-rule:evenodd;stroke-width:0.264583"
       d="m 103.57707,102.92314 a 19.19747,19.19747 0 0 0 -19.197796,19.19728 19.19747,19.19747 0 0 0 19.197796,19.19728 19.19747,19.19747 0 0 0 19.19727,-19.19728 19.19747,19.19747 0 0 0 -19.19727,-19.19728 z m 0,5.13561 a 14.061475,14.061475 0 0 1 14.06115,14.06167 14.061475,14.061475 0 0 1 -14.06115,14.06167 14.061475,14.061475 0 0 1 -14.061676,-14.06167 14.061475,14.061475 0 0 1 14.061676,-14.06167 z m -5.2e-4,3.99613 a 4.5973386,4.5973386 0 0 0 -4.597134,4.59766 4.5973386,4.5973386 0 0 0 4.597134,4.59713 4.5973386,4.5973386 0 0 0 4.59765,-4.59713 4.5973386,4.5973386 0 0 0 -4.59765,-4.59766 z m 0,10.9368 a 4.5973386,4.5973386 0 0 0 -4.597134,4.59766 4.5973386,4.5973386 0 0 0 4.597134,4.59713 4.5973386,4.5973386 0 0 0 4.59765,-4.59713 4.5973386,4.5973386 0 0 0 -4.59765,-4.59766 z" />
    <path
       id="path31-5"
       style="fill:#0066ff;fill-rule:evenodd;stroke-width:0.264583"
       d="m 103.57707,144.16851 a 19.19747,19.19747 0 0 0 -19.197796,19.19728 19.19747,19.19747 0 0 0 19.197796,19.19727 19.19747,19.19747 0 0 0 19.19727,-19.19727 19.19747,19.19747 0 0 0 -19.19727,-19.19728 z m 0,5.13561 a 14.061475,14.061475 0 0 1 14.06115,14.06167 14.061475,14.061475 0 0 1 -14.06115,14.06167 14.061475,14.061475 0 0 1 -14.061675,-14.06167 14.061475,14.061475 0 0 1 14.061675,-14.06167 z m -5.2e-4,3.3693 a 4.5973386,4.5973386 0 0 0 -4.597134,4.59713 4.5973386,4.5973386 0 0 0 4.597134,4.59766 4.5973386,4.5973386 0 0 0 4.59714,-4.59766 4.5973386,4.5973386 0 0 0 -4.59714,-4.59713 z m -5.586739,10.0738 a 4.5973386,4.5973386 0 0 0 -4.597652,4.59714 4.5973386,4.5973386 0 0 0 4.597652,4.59765 4.5973386,4.5973386 0 0 0 4.597139,-4.59765 4.5973386,4.5973386 0 0 0 -4.597139,-4.59714 z m 11.173479,0 a 4.5973386,4.5973386 0 0 0 -4.59714,4.59714 4.5973386,4.5973386 0 0 0 4.59714,4.59765 4.5973386,4.5973386 0 0 0 4.59765,-4.59765 4.5973386,4.5973386 0 0 0 -4.59765,-4.59714 z" />
    <path
       id="path31-5-7"
       style="fill:#ff5555;fill-rule:evenodd;stroke-width:0.264583"
       d="m 103.57707,185.41388 a 19.19747,19.19747 0 0 0 -19.197796,19.19728 19.19747,19.19747 0 0 0 19.197796,19.19728 19.19747,19.19747 0 0 0 19.19727,-19.19728 19.19747,19.19747 0 0 0 -19.19727,-19.19728 z m 0,5.13561 a 14.061475,14.061475 0 0 1 14.06115,14.06167 14.061475,14.061475 0 0 1 -14.06115,14.06167 14.061475,14.061475 0 0 1 -14.061675,-14.06167 14.061475,14.061475 0 0 1 14.061675,-14.06167 z m -5.319575,4.09691 a 4.5973383,4.5973383 0 0 0 -4.597651,4.59713 4.5973383,4.5973383 0 0 0 4.597651,4.59765 4.5973383,4.5973383 0 0 0 4.597135,-4.59765 4.5973383,4.5973383 0 0 0 -4.597135,-4.59713 z m 10.638625,0 a 4.5973383,4.5973383 0 0 0 -4.59765,4.59713 4.5973383,4.5973383 0 0 0 4.59765,4.59765 4.5973383,4.5973383 0 0 0 4.59765,-4.59765 4.5973383,4.5973383 0 0 0 -4.59765,-4.59713 z m -10.638625,10.73474 a 4.5973383,4.5973383 0 0 0 -4.597651,4.59765 4.5973383,4.5973383 0 0 0 4.597651,4.59765 4.5973383,4.5973383 0 0 0 4.597135,-4.59765 4.5973383,4.5973383 0 0 0 -4.597135,-4.59765 z m 10.638625,0 a 4.5973383,4.5973383 0 0 0 -4.59765,4.59765 4.5973383,4.5973383 0 0 0 4.59765,4.59765 4.5973383,4.5973383 0 0 0 4.59765,-4.59765 4.5973383,4.5973383 0 0 0 -4.59765,-4.59765 z" />
  </g>
</svg>
