<?xml version="1.0" encoding="UTF-8" standalone="no"?>
<!-- Created with Inkscape (http://www.inkscape.org/) -->

<svg
   width="210mm"
   height="297mm"
   viewBox="0 0 210 297"
   version="1.1"
   id="svg5"
   inkscape:version="1.1.2 (0a00cf5339, 2022-02-04)"
   sodipodi:docname="drawing.svg"
   xmlns:inkscape="http://www.inkscape.org/namespaces/inkscape"
   xmlns:sodipodi="http://sodipodi.sourceforge.net/DTD/sodipodi-0.dtd"
   xmlns="http://www.w3.org/2000/svg"
   xmlns:svg="http://www.w3.org/2000/svg">
  <sodipodi:namedview
     id="namedview7"
     pagecolor="#ffffff"
     bordercolor="#666666"
     borderopacity="1.0"
     inkscape:pageshadow="2"
     inkscape:pageopacity="0.0"
     inkscape:pagecheckerboard="0"
     inkscape:document-units="mm"
     showgrid="false"
     inkscape:zoom="0.69664702"
     inkscape:cx="554.80034"
     inkscape:cy="299.29074"
     inkscape:window-width="1846"
     inkscape:window-height="1016"
     inkscape:window-x="0"
     inkscape:window-y="0"
     inkscape:window-maximized="1"
     inkscape:current-layer="layer1" />
  <defs
     id="defs2" />
  <g
     inkscape:label="Layer 1"
     inkscape:groupmode="layer"
     id="layer1">
    <path
       id="path31"
       style="fill:#71c837;fill-rule:evenodd;stroke-width:0.264583"
       d="m 103.40834,91.613362 a 19.19747,19.19747 0 0 0 -19.197787,19.197278 19.19747,19.19747 0 0 0 19.197787,19.19728 19.19747,19.19747 0 0 0 19.19728,-19.19728 19.19747,19.19747 0 0 0 -19.19728,-19.197278 z m 0,5.135604 a 14.061475,14.061475 0 0 1 14.06115,14.061674 14.061475,14.061475 0 0 1 -14.06115,14.06167 14.061475,14.061475 0 0 1 -14.061667,-14.06167 14.061475,14.061475 0 0 1 14.061667,-14.061674 z m -5.2e-4,9.464534 a 4.5973386,4.5973386 0 0 0 -4.597125,4.59714 4.5973386,4.5973386 0 0 0 4.597125,4.59713 4.5973386,4.5973386 0 0 0 4.59765,-4.59713 4.5973386,4.5973386 0 0 0 -4.59765,-4.59714 z" />
    <path
       id="path31-3-6"
       style="fill:#2a7fff;fill-rule:evenodd;stroke-width:0.265;stroke-miterlimit:4;stroke-dasharray:none"
       d="M 33.502121,43.32264 A 19.197469,19.197469 0 0 0 14.304332,62.519917 19.197469,19.197469 0 0 0 33.502121,81.717194 19.197469,19.197469 0 0 0 52.699401,62.519917 19.197469,19.197469 0 0 0 33.502121,43.32264 Z m 0,5.135604 A 14.061474,14.061474 0 0 1 47.563281,62.519917 14.061474,14.061474 0 0 1 33.502121,76.581592 14.061474,14.061474 0 0 1 19.440453,62.519917 14.061474,14.061474 0 0 1 33.502121,48.458244 Z m 6.88589,5.324739 c -0.61045,-0.0111 -1.21421,0.272296 -1.59267,0.811837 l -7.34942,10.477396 -3.136244,-5.308203 c -0.53635,-0.907869 -1.699207,-1.207106 -2.607074,-0.67076 l -0.420648,0.248564 c -0.90787,0.536346 -1.207627,1.699208 -0.671277,2.607076 l 4.945953,8.371582 c 0.53635,0.907869 1.69921,1.206589 2.60708,0.670243 l 0.42116,-0.248564 c 0.39456,-0.233098 0.6736,-0.584482 0.81959,-0.981852 l 8.90798,-12.698966 c 0.60553,-0.863265 0.39766,-2.045474 -0.46561,-2.651001 l -0.39997,-0.28112 c -0.32373,-0.227072 -0.69258,-0.339573 -1.05885,-0.346232 z m -3.6959,2.909383 -0.0227,0.03462 h 0.0227 z"
       inkscape:export-filename="/home/ns/Desktop/GitRepo/JS-Instructor/js-instructor/assets/i.png"
       inkscape:export-xdpi="10.5847"
       inkscape:export-ydpi="10.5847" />
    <path
       id="path31-3-6-1"
       style="fill:#ffba6b;fill-opacity:1;fill-rule:evenodd;stroke-width:0.265;stroke-miterlimit:4;stroke-dasharray:none"
       d="M -14.4632,43.32264 A 19.197468,19.197468 0 0 0 -33.660995,62.519917 19.197468,19.197468 0 0 0 -14.4632,81.717195 19.197468,19.197468 0 0 0 4.7340779,62.519917 19.197468,19.197468 0 0 0 -14.4632,43.32264 Z m 0,5.135605 a 14.061473,14.061473 0 0 1 14.06115738,14.061672 14.061473,14.061473 0 0 1 -0.35036622,3.106272 c -3.59467276,0.767932 -9.39979716,1.024964 -14.06270716,-3.42098 -4.514562,-4.304501 -9.848093,-3.909576 -13.267923,-2.979148 A 14.061473,14.061473 0 0 1 -14.4632,48.458245 Z"
       inkscape:export-filename="/home/ns/Desktop/GitRepo/JS-Instructor/js-instructor/assets/p.png"
       inkscape:export-xdpi="10.5847"
       inkscape:export-ydpi="10.5847" />
    <path
       id="path31-3-6-2"
       style="fill:#aa00d4;fill-rule:evenodd;stroke-width:0.264583"
       d="m 103.40835,264.27586 a 19.197468,19.197468 0 0 0 -19.197796,19.19726 19.197468,19.197468 0 0 0 19.197796,19.1973 19.197468,19.197468 0 0 0 19.19727,-19.1973 19.197468,19.197468 0 0 0 -19.19727,-19.19726 z m 0,5.13559 a 14.061474,14.061474 0 0 1 14.06115,14.06167 14.061474,14.061474 0 0 1 -14.06115,14.06168 14.061474,14.061474 0 0 1 -14.061676,-14.06168 14.061474,14.061474 0 0 1 14.061676,-14.06167 z m -6.011522,5.764 c -0.536371,0 -1.072631,0.2055 -1.483632,0.6165 l -0.186034,0.18603 c -0.821999,0.82201 -0.821999,2.1458 0,2.96778 l 4.527368,4.52736 -4.527368,4.5274 c -0.821999,0.82198 -0.821999,2.14577 0,2.96777 l 0.186034,0.18603 c 0.821992,0.82201 2.145263,0.82201 2.967262,0 l 4.527372,-4.52789 4.52789,4.52789 c 0.822,0.82201 2.14526,0.82201 2.96726,0 l 0.18604,-0.18603 c 0.822,-0.822 0.822,-2.14579 0,-2.96777 l -4.52738,-4.5274 4.52738,-4.52736 c 0.822,-0.82198 0.822,-2.14577 0,-2.96778 l -0.18604,-0.18603 c -0.822,-0.822 -2.14526,-0.822 -2.96726,0 l -4.52789,4.5279 -4.527372,-4.5279 c -0.411001,-0.411 -0.947261,-0.6165 -1.48363,-0.6165 z"
       inkscape:export-filename="/home/ns/Desktop/GitRepo/JS-Instructor/js-instructor/assets/x.png"
       inkscape:export-xdpi="10.5847"
       inkscape:export-ydpi="10.5847" />
    <path
       id="path31-3-6-6"
       style="fill:#deaa87;fill-rule:evenodd;stroke-width:0.265;stroke-miterlimit:4;stroke-dasharray:none"
       d="m 129.43279,43.32264 a 19.19747,19.19747 0 0 0 -19.1978,19.197277 19.19747,19.19747 0 0 0 19.1978,19.197278 19.19747,19.19747 0 0 0 19.19727,-19.197278 19.19747,19.19747 0 0 0 -19.19727,-19.197277 z m 0,5.135604 A 14.061474,14.061474 0 0 1 143.49394,62.519917 14.061474,14.061474 0 0 1 129.43279,76.58159 14.061474,14.061474 0 0 1 115.37111,62.519917 14.061474,14.061474 0 0 1 129.43279,48.458244 Z m -0.0419,3.779614 -3.76101,5.517492 -6.4332,1.97714 4.08554,5.281848 -0.10801,6.729305 6.28592,-2.253609 6.36654,2.182296 -0.2005,-6.674528 4.04264,-5.381067 -6.40994,-1.87172 z m 3.23184,4.454509 -0.0227,0.03462 h 0.0227 z"
       inkscape:export-filename="/home/ns/Desktop/GitRepo/JS-Instructor/js-instructor/assets/e.png"
       inkscape:export-xdpi="10.5847"
       inkscape:export-ydpi="10.5847" />
    <path
       id="path31-3-6-3"
       style="fill:#ff5599;fill-rule:evenodd;stroke-width:0.265;stroke-miterlimit:4;stroke-dasharray:none"
       d="M 177.3981,43.32264 A 19.19747,19.19747 0 0 0 158.20031,62.519917 19.19747,19.19747 0 0 0 177.3981,81.717194 19.19747,19.19747 0 0 0 196.59538,62.519917 19.19747,19.19747 0 0 0 177.3981,43.32264 Z m 0,5.135604 A 14.061474,14.061474 0 0 1 191.45926,62.519917 14.061474,14.061474 0 0 1 177.3981,76.581592 14.061474,14.061474 0 0 1 163.33643,62.519917 14.061474,14.061474 0 0 1 177.3981,48.458244 Z m -0.30386,2.291333 c -1.28833,0 -2.32544,0.930756 -2.32544,2.087211 v 11.951725 c 0,1.156453 1.03712,2.087211 2.32544,2.087211 h 0.60772 c 1.28833,0 2.32544,-0.930758 2.32544,-2.087211 V 52.836788 c 0,-1.156455 -1.03711,-2.087211 -2.32544,-2.087211 z m 3.49384,5.942789 -0.0227,0.03462 h 0.0227 z m -3.18998,12.694832 a 2.731263,2.4516848 0 0 0 -2.7311,2.452047 2.731263,2.4516848 0 0 0 2.7311,2.45153 2.731263,2.4516848 0 0 0 2.7311,-2.45153 2.731263,2.4516848 0 0 0 -2.7311,-2.452047 z"
       inkscape:export-filename="/home/ns/Desktop/GitRepo/JS-Instructor/js-instructor/assets/n.png"
       inkscape:export-xdpi="10.5847"
       inkscape:export-ydpi="10.5847" />
    <path
       id="path31-3-6-5"
       style="fill:#37c8ab;fill-rule:evenodd;stroke-width:0.265;stroke-miterlimit:4;stroke-dasharray:none"
       d="M 81.467446,43.32264 A 19.19747,19.19747 0 0 0 62.269656,62.519917 19.19747,19.19747 0 0 0 81.467446,81.717195 19.19747,19.19747 0 0 0 100.66473,62.519917 19.19747,19.19747 0 0 0 81.467446,43.32264 Z m 0,5.135604 A 14.061474,14.061474 0 0 1 95.528606,62.519917 14.061474,14.061474 0 0 1 81.467446,76.58159 14.061474,14.061474 0 0 1 67.405776,62.519917 14.061474,14.061474 0 0 1 81.467446,48.458244 Z m -5.72678,5.082894 c -1.30683,0 -2.35903,1.051689 -2.35903,2.358512 0,1.306824 1.0522,2.359545 2.35903,2.359545 h 11.45253 c 1.30682,0 2.35903,-1.052721 2.35903,-2.359545 0,-1.306823 -1.05221,-2.358512 -2.35903,-2.358512 z m 0,6.620267 c -1.30683,0 -2.35903,1.052206 -2.35903,2.359029 0,1.306822 1.0522,2.359029 2.35903,2.359029 h 11.45253 c 1.30682,0 2.35903,-1.052207 2.35903,-2.359029 0,-1.306823 -1.05221,-2.359029 -2.35903,-2.359029 z m 0,6.619751 c -1.30683,0 -2.35903,1.052207 -2.35903,2.359029 0,1.306823 1.0522,2.359029 2.35903,2.359029 h 11.45253 c 1.30682,0 2.35903,-1.052206 2.35903,-2.359029 0,-1.306822 -1.05221,-2.359029 -2.35903,-2.359029 z"
       inkscape:export-filename="/home/ns/Desktop/GitRepo/JS-Instructor/js-instructor/assets/d.png"
       inkscape:export-xdpi="10.5847"
       inkscape:export-ydpi="10.5847" />
    <path
       id="path31-3-6-53"
       style="fill:#2a7fff;fill-rule:evenodd;stroke-width:0.264583"
       d="M 30.164487,-10.739864 A 19.197469,19.197469 0 0 0 10.966698,8.4574129 19.197469,19.197469 0 0 0 30.164487,27.65469 19.197469,19.197469 0 0 0 49.361767,8.4574129 19.197469,19.197469 0 0 0 30.164487,-10.739864 Z m 0,5.1356039 A 14.061474,14.061474 0 0 1 44.225647,8.4574129 14.061474,14.061474 0 0 1 30.164487,22.519088 14.061474,14.061474 0 0 1 16.102819,8.4574129 14.061474,14.061474 0 0 1 30.164487,-5.6042601 Z m 6.88589,5.32473898 c -0.61045,-0.0111 -1.21421,0.272296 -1.59267,0.811837 L 28.108287,11.009712 24.972043,5.7015089 c -0.53635,-0.907869 -1.699207,-1.207106 -2.607074,-0.67076 l -0.420648,0.248564 c -0.90787,0.536346 -1.207627,1.699208 -0.671277,2.607076 l 4.945953,8.3715821 c 0.53635,0.907869 1.69921,1.206589 2.60708,0.670243 l 0.42116,-0.248564 c 0.39456,-0.233098 0.6736,-0.584482 0.81959,-0.981852 l 8.90798,-12.6989661 c 0.60553,-0.863265 0.39766,-2.04547402 -0.46561,-2.65100102 l -0.39997,-0.28112 c -0.32373,-0.227072 -0.69258,-0.339573 -1.05885,-0.346232 z m -3.6959,2.90938302 -0.0227,0.03462 h 0.0227 z"
       inkscape:export-filename="/home/ns/Desktop/GitRepo/JS-Instructor/js-instructor/assets/f.png"
       inkscape:export-xdpi="10.5847"
       inkscape:export-ydpi="10.5847" />
    <path
       id="path31-3-6-6-5"
       style="fill:#deaa87;fill-rule:evenodd;stroke-width:0.264583"
       d="M 107.22151,-10.739865 A 19.19747,19.19747 0 0 0 88.023775,8.4574126 19.19747,19.19747 0 0 0 107.22151,27.65469 19.19747,19.19747 0 0 0 126.41878,8.4574126 19.19747,19.19747 0 0 0 107.22151,-10.739865 Z m 0,5.1356046 A 14.061474,14.061474 0 0 1 121.28266,8.4574126 14.061474,14.061474 0 0 1 107.22151,22.519085 14.061474,14.061474 0 0 1 93.159873,8.4574126 14.061474,14.061474 0 0 1 107.22151,-5.6042604 Z m -0.0419,3.779614 -3.76101,5.517492 -6.433178,1.97714 4.085518,5.2818474 -0.10801,6.729305 6.28592,-2.253609 6.36654,2.182296 -0.2005,-6.674528 4.04264,-5.3810664 -6.40994,-1.87172 z m 3.23184,4.454509 -0.0227,0.03462 h 0.0227 z"
       inkscape:export-filename="/home/ns/Desktop/GitRepo/JS-Instructor/js-instructor/assets/f.png"
       inkscape:export-xdpi="10.5847"
       inkscape:export-ydpi="10.5847" />
    <path
       id="path31-3-6-5-6"
       style="fill:#37c8ab;fill-rule:evenodd;stroke-width:0.264583"
       d="M 68.693013,-10.739865 A 19.19747,19.19747 0 0 0 49.495223,8.4574124 19.19747,19.19747 0 0 0 68.693013,27.65469 19.19747,19.19747 0 0 0 87.890293,8.4574124 19.19747,19.19747 0 0 0 68.693013,-10.739865 Z m 0,5.1356044 A 14.061474,14.061474 0 0 1 82.754173,8.4574124 14.061474,14.061474 0 0 1 68.693013,22.519085 14.061474,14.061474 0 0 1 54.631343,8.4574124 14.061474,14.061474 0 0 1 68.693013,-5.6042606 Z m -5.72678,5.08289398 c -1.30683,0 -2.35903,1.051689 -2.35903,2.35851202 0,1.306824 1.0522,2.359545 2.35903,2.359545 h 11.45253 c 1.30682,0 2.35903,-1.052721 2.35903,-2.359545 0,-1.30682302 -1.05221,-2.35851202 -2.35903,-2.35851202 z m 0,6.62026702 c -1.30683,0 -2.35903,1.052206 -2.35903,2.359029 0,1.306822 1.0522,2.3590286 2.35903,2.3590286 h 11.45253 c 1.30682,0 2.35903,-1.0522066 2.35903,-2.3590286 0,-1.306823 -1.05221,-2.359029 -2.35903,-2.359029 z m 0,6.6197506 c -1.30683,0 -2.35903,1.052207 -2.35903,2.359029 0,1.306823 1.0522,2.359029 2.35903,2.359029 h 11.45253 c 1.30682,0 2.35903,-1.052206 2.35903,-2.359029 0,-1.306822 -1.05221,-2.359029 -2.35903,-2.359029 z"
       inkscape:export-filename="/home/ns/Desktop/GitRepo/JS-Instructor/js-instructor/assets/f.png"
       inkscape:export-xdpi="10.5847"
       inkscape:export-ydpi="10.5847" />
    <path
       id="path31-7"
       style="fill:#ffcc00;fill-rule:evenodd;stroke-width:0.264583"
       d="m 103.40835,134.77898 a 19.19747,19.19747 0 0 0 -19.197792,19.19728 19.19747,19.19747 0 0 0 19.197792,19.19728 19.19747,19.19747 0 0 0 19.19727,-19.19728 19.19747,19.19747 0 0 0 -19.19727,-19.19728 z m 0,5.13561 a 14.061475,14.061475 0 0 1 14.06115,14.06167 14.061475,14.061475 0 0 1 -14.06115,14.06167 14.061475,14.061475 0 0 1 -14.061672,-14.06167 14.061475,14.061475 0 0 1 14.061672,-14.06167 z m -5.2e-4,3.99613 a 4.5973386,4.5973386 0 0 0 -4.59713,4.59766 4.5973386,4.5973386 0 0 0 4.59713,4.59713 4.5973386,4.5973386 0 0 0 4.59765,-4.59713 4.5973386,4.5973386 0 0 0 -4.59765,-4.59766 z m 0,10.9368 a 4.5973386,4.5973386 0 0 0 -4.59713,4.59766 4.5973386,4.5973386 0 0 0 4.59713,4.59713 4.5973386,4.5973386 0 0 0 4.59765,-4.59713 4.5973386,4.5973386 0 0 0 -4.59765,-4.59766 z" />
    <path
       id="path31-5"
       style="fill:#ff7f2a;fill-rule:evenodd;stroke-width:0.264583"
       d="m 103.40835,177.9446 a 19.19747,19.19747 0 0 0 -19.197792,19.19728 19.19747,19.19747 0 0 0 19.197792,19.19727 19.19747,19.19747 0 0 0 19.19727,-19.19727 19.19747,19.19747 0 0 0 -19.19727,-19.19728 z m 0,5.13561 a 14.061475,14.061475 0 0 1 14.06115,14.06167 14.061475,14.061475 0 0 1 -14.06115,14.06167 14.061475,14.061475 0 0 1 -14.061671,-14.06167 14.061475,14.061475 0 0 1 14.061671,-14.06167 z m -5.2e-4,3.3693 a 4.5973386,4.5973386 0 0 0 -4.59713,4.59713 4.5973386,4.5973386 0 0 0 4.59713,4.59766 4.5973386,4.5973386 0 0 0 4.59714,-4.59766 4.5973386,4.5973386 0 0 0 -4.59714,-4.59713 z m -5.586735,10.0738 a 4.5973386,4.5973386 0 0 0 -4.597652,4.59714 4.5973386,4.5973386 0 0 0 4.597652,4.59765 4.5973386,4.5973386 0 0 0 4.597135,-4.59765 4.5973386,4.5973386 0 0 0 -4.597135,-4.59714 z m 11.173475,0 a 4.5973386,4.5973386 0 0 0 -4.59714,4.59714 4.5973386,4.5973386 0 0 0 4.59714,4.59765 4.5973386,4.5973386 0 0 0 4.59765,-4.59765 4.5973386,4.5973386 0 0 0 -4.59765,-4.59714 z"
       inkscape:export-filename="/home/ns/Desktop/GitRepo/JS-Instructor/js-instructor/assets/3.png"
       inkscape:export-xdpi="10.5847"
       inkscape:export-ydpi="10.5847" />
    <path
       id="path31-5-7"
       style="fill:#ff5555;fill-rule:evenodd;stroke-width:0.264583"
       d="m 103.40835,221.11023 a 19.19747,19.19747 0 0 0 -19.197792,19.19728 19.19747,19.19747 0 0 0 19.197792,19.19728 19.19747,19.19747 0 0 0 19.19727,-19.19728 19.19747,19.19747 0 0 0 -19.19727,-19.19728 z m 0,5.13561 a 14.061475,14.061475 0 0 1 14.06115,14.06167 14.061475,14.061475 0 0 1 -14.06115,14.06167 14.061475,14.061475 0 0 1 -14.061671,-14.06167 14.061475,14.061475 0 0 1 14.061671,-14.06167 z m -5.319571,4.09691 a 4.5973383,4.5973383 0 0 0 -4.597651,4.59713 4.5973383,4.5973383 0 0 0 4.597651,4.59765 4.5973383,4.5973383 0 0 0 4.597131,-4.59765 4.5973383,4.5973383 0 0 0 -4.597131,-4.59713 z m 10.638621,0 a 4.5973383,4.5973383 0 0 0 -4.59765,4.59713 4.5973383,4.5973383 0 0 0 4.59765,4.59765 4.5973383,4.5973383 0 0 0 4.59765,-4.59765 4.5973383,4.5973383 0 0 0 -4.59765,-4.59713 z m -10.638621,10.73474 a 4.5973383,4.5973383 0 0 0 -4.597651,4.59765 4.5973383,4.5973383 0 0 0 4.597651,4.59765 4.5973383,4.5973383 0 0 0 4.597131,-4.59765 4.5973383,4.5973383 0 0 0 -4.597131,-4.59765 z m 10.638621,0 a 4.5973383,4.5973383 0 0 0 -4.59765,4.59765 4.5973383,4.5973383 0 0 0 4.59765,4.59765 4.5973383,4.5973383 0 0 0 4.59765,-4.59765 4.5973383,4.5973383 0 0 0 -4.59765,-4.59765 z" />
  </g>
</svg>
