<?xml version="1.0" encoding="UTF-8" standalone="no"?>
<!-- Created with Inkscape (http://www.inkscape.org/) -->

<svg
   width="210mm"
   height="297mm"
   viewBox="0 0 210 297"
   version="1.1"
   id="svg5"
   inkscape:version="1.1.2 (0a00cf5339, 2022-02-04)"
   sodipodi:docname="drawing.svg"
   xmlns:inkscape="http://www.inkscape.org/namespaces/inkscape"
   xmlns:sodipodi="http://sodipodi.sourceforge.net/DTD/sodipodi-0.dtd"
   xmlns="http://www.w3.org/2000/svg"
   xmlns:svg="http://www.w3.org/2000/svg">
  <sodipodi:namedview
     id="namedview7"
     pagecolor="#ffffff"
     bordercolor="#666666"
     borderopacity="1.0"
     inkscape:pageshadow="2"
     inkscape:pageopacity="0.0"
     inkscape:pagecheckerboard="0"
     inkscape:document-units="mm"
     showgrid="false"
     inkscape:zoom="0.69664702"
     inkscape:cx="638.05627"
     inkscape:cy="325.12879"
     inkscape:window-width="1846"
     inkscape:window-height="1016"
     inkscape:window-x="0"
     inkscape:window-y="0"
     inkscape:window-maximized="1"
     inkscape:current-layer="layer1" />
  <defs
     id="defs2" />
  <g
     inkscape:label="Layer 1"
     inkscape:groupmode="layer"
     id="layer1">
    <path
       id="path31"
       style="fill:#71c837;fill-rule:evenodd;stroke-width:0.264583"
       d="M 103.57707,61.677771 A 19.19747,19.19747 0 0 0 84.379273,80.875049 19.19747,19.19747 0 0 0 103.57707,100.07233 19.19747,19.19747 0 0 0 122.77435,80.875049 19.19747,19.19747 0 0 0 103.57707,61.677771 Z m 0,5.135604 A 14.061475,14.061475 0 0 1 117.63822,80.875049 14.061475,14.061475 0 0 1 103.57707,94.936723 14.061475,14.061475 0 0 1 89.515393,80.875049 14.061475,14.061475 0 0 1 103.57707,66.813375 Z m -5.2e-4,9.464538 a 4.5973386,4.5973386 0 0 0 -4.597135,4.597136 4.5973386,4.5973386 0 0 0 4.597135,4.597135 4.5973386,4.5973386 0 0 0 4.59765,-4.597135 4.5973386,4.5973386 0 0 0 -4.59765,-4.597136 z" />
    <path
       id="path31-3-6"
       style="fill:#333333;fill-rule:evenodd;stroke-width:0.264583"
       d="M 104.69901,-2.2629472 A 19.19747,19.19747 0 0 0 85.501213,16.93433 19.19747,19.19747 0 0 0 104.69901,36.131609 19.19747,19.19747 0 0 0 123.89628,16.93433 19.19747,19.19747 0 0 0 104.69901,-2.2629472 Z m 0,5.1356038 A 14.061475,14.061475 0 0 1 118.76017,16.93433 14.061475,14.061475 0 0 1 104.69901,30.996004 14.061475,14.061475 0 0 1 90.637334,16.93433 14.061475,14.061475 0 0 1 104.69901,2.8726566 Z m 7.11584,4.9872923 c -1.06133,-0.00767 -2.16217,0.56886 -2.8391,1.5968019 l -5.79138,8.7942952 -3.06493,-4.358391 c -0.672238,-0.9559 -2.01325,-1.205239 -3.007048,-0.558622 l -1.199412,0.780314 c -0.993781,0.646619 -1.252059,1.936946 -0.579808,2.892847 l 5.386238,7.658964 c 0.12604,0.179232 0.27492,0.333704 0.44131,0.461987 0,0 5.2e-4,5.17e-4 5.2e-4,5.17e-4 0.16607,0.189619 0.36233,0.357212 0.58859,0.49506 1.35226,0.823897 3.23372,0.283376 4.21835,-1.211812 l 7.88944,-11.980664 c 0.98463,-1.495188 0.68875,-3.3624106 -0.66352,-4.1863077 -0.42258,-0.2574679 -0.89682,-0.3815035 -1.37925,-0.3849894 z"
       inkscape:export-filename="/home/ns/Desktop/GitRepo/JS-Instructor/js-instructor/assets/i.png"
       inkscape:export-xdpi="10.5847"
       inkscape:export-ydpi="10.5847" />
    <path
       id="path31-3-6-5"
       style="fill:#333333;fill-rule:evenodd;stroke-width:0.264583"
       d="m 148.73383,-2.811972 a 19.19747,19.19747 0 0 0 -19.1978,19.197278 19.19747,19.19747 0 0 0 19.1978,19.197278 19.19747,19.19747 0 0 0 19.19728,-19.197278 19.19747,19.19747 0 0 0 -19.19728,-19.197278 z m 0,5.1356037 A 14.061475,14.061475 0 0 1 162.79499,16.385306 14.061475,14.061475 0 0 1 148.73383,30.446979 14.061475,14.061475 0 0 1 134.67216,16.385306 14.061475,14.061475 0 0 1 148.73383,2.3236317 Z m -4.32222,6.7339558 c -2.003,0 -3.61528,1.6127985 -3.61528,3.6158005 v 0.09663 c 0,2.003003 1.61228,3.6158 3.61528,3.6158 -2.003,0 -3.61528,1.612281 -3.61528,3.615283 v 0.09664 c 0,2.003002 1.61228,3.6158 3.61528,3.6158 h 8.64444 c 2.003,0 3.61528,-1.612798 3.61528,-3.6158 v -0.09664 c 0,-2.003002 -1.61228,-3.615283 -3.61528,-3.615283 2.003,0 3.61528,-1.612797 3.61528,-3.6158 v -0.09663 c 0,-2.003002 -1.61228,-3.6158005 -3.61528,-3.6158005 z"
       inkscape:export-filename="/home/ns/Desktop/GitRepo/JS-Instructor/js-instructor/assets/d.png"
       inkscape:export-xdpi="10.5847"
       inkscape:export-ydpi="10.5847" />
    <path
       id="path31-3-6-5-3"
       style="fill:#333333;fill-rule:evenodd;stroke-width:0.999999"
       d="M 734.77539 -10.630859 A 72.557367 72.557367 0 0 0 662.2168 61.925781 A 72.557367 72.557367 0 0 0 734.77539 134.48242 A 72.557367 72.557367 0 0 0 807.33203 61.925781 A 72.557367 72.557367 0 0 0 734.77539 -10.630859 z M 734.77539 8.7792969 A 53.145732 53.145732 0 0 1 787.91992 61.925781 A 53.145732 53.145732 0 0 1 734.77539 115.07227 A 53.145732 53.145732 0 0 1 681.62891 61.925781 A 53.145732 53.145732 0 0 1 734.77539 8.7792969 z M 707.27539 31.746094 C 703.86206 31.746094 701.11523 34.494869 701.11523 37.908203 L 701.11523 72.955078 C 701.11523 76.368411 703.86206 79.117187 707.27539 79.117188 L 721.06445 79.117188 L 721.06445 85.947266 C 721.06445 89.360599 723.81323 92.107422 727.22656 92.107422 L 762.27344 92.107422 C 765.68677 92.107422 768.43555 89.360599 768.43555 85.947266 L 768.43555 50.898438 C 768.43555 47.485097 765.68677 44.738281 762.27344 44.738281 L 748.48438 44.738281 L 748.48438 37.908203 C 748.48438 34.494869 745.73559 31.746094 742.32227 31.746094 L 707.27539 31.746094 z "
       transform="scale(0.26458333)"
       inkscape:export-filename="/home/ns/Desktop/GitRepo/JS-Instructor/js-instructor/assets/e.png"
       inkscape:export-xdpi="10.5847"
       inkscape:export-ydpi="10.5847" />
    <path
       id="path31-7"
       style="fill:#ffcc00;fill-rule:evenodd;stroke-width:0.264583"
       d="m 103.57707,102.92314 a 19.19747,19.19747 0 0 0 -19.197796,19.19728 19.19747,19.19747 0 0 0 19.197796,19.19728 19.19747,19.19747 0 0 0 19.19727,-19.19728 19.19747,19.19747 0 0 0 -19.19727,-19.19728 z m 0,5.13561 a 14.061475,14.061475 0 0 1 14.06115,14.06167 14.061475,14.061475 0 0 1 -14.06115,14.06167 14.061475,14.061475 0 0 1 -14.061676,-14.06167 14.061475,14.061475 0 0 1 14.061676,-14.06167 z m -5.2e-4,3.99613 a 4.5973386,4.5973386 0 0 0 -4.597134,4.59766 4.5973386,4.5973386 0 0 0 4.597134,4.59713 4.5973386,4.5973386 0 0 0 4.59765,-4.59713 4.5973386,4.5973386 0 0 0 -4.59765,-4.59766 z m 0,10.9368 a 4.5973386,4.5973386 0 0 0 -4.597134,4.59766 4.5973386,4.5973386 0 0 0 4.597134,4.59713 4.5973386,4.5973386 0 0 0 4.59765,-4.59713 4.5973386,4.5973386 0 0 0 -4.59765,-4.59766 z" />
    <path
       id="path31-5"
       style="fill:#0066ff;fill-rule:evenodd;stroke-width:0.264583"
       d="m 103.57707,144.16851 a 19.19747,19.19747 0 0 0 -19.197796,19.19728 19.19747,19.19747 0 0 0 19.197796,19.19727 19.19747,19.19747 0 0 0 19.19727,-19.19727 19.19747,19.19747 0 0 0 -19.19727,-19.19728 z m 0,5.13561 a 14.061475,14.061475 0 0 1 14.06115,14.06167 14.061475,14.061475 0 0 1 -14.06115,14.06167 14.061475,14.061475 0 0 1 -14.061675,-14.06167 14.061475,14.061475 0 0 1 14.061675,-14.06167 z m -5.2e-4,3.3693 a 4.5973386,4.5973386 0 0 0 -4.597134,4.59713 4.5973386,4.5973386 0 0 0 4.597134,4.59766 4.5973386,4.5973386 0 0 0 4.59714,-4.59766 4.5973386,4.5973386 0 0 0 -4.59714,-4.59713 z m -5.586739,10.0738 a 4.5973386,4.5973386 0 0 0 -4.597652,4.59714 4.5973386,4.5973386 0 0 0 4.597652,4.59765 4.5973386,4.5973386 0 0 0 4.597139,-4.59765 4.5973386,4.5973386 0 0 0 -4.597139,-4.59714 z m 11.173479,0 a 4.5973386,4.5973386 0 0 0 -4.59714,4.59714 4.5973386,4.5973386 0 0 0 4.59714,4.59765 4.5973386,4.5973386 0 0 0 4.59765,-4.59765 4.5973386,4.5973386 0 0 0 -4.59765,-4.59714 z" />
    <path
       id="path31-5-7"
       style="fill:#ff5555;fill-rule:evenodd;stroke-width:0.264583"
       d="m 103.57707,185.41388 a 19.19747,19.19747 0 0 0 -19.197796,19.19728 19.19747,19.19747 0 0 0 19.197796,19.19728 19.19747,19.19747 0 0 0 19.19727,-19.19728 19.19747,19.19747 0 0 0 -19.19727,-19.19728 z m 0,5.13561 a 14.061475,14.061475 0 0 1 14.06115,14.06167 14.061475,14.061475 0 0 1 -14.06115,14.06167 14.061475,14.061475 0 0 1 -14.061675,-14.06167 14.061475,14.061475 0 0 1 14.061675,-14.06167 z m -5.319575,4.09691 a 4.5973383,4.5973383 0 0 0 -4.597651,4.59713 4.5973383,4.5973383 0 0 0 4.597651,4.59765 4.5973383,4.5973383 0 0 0 4.597135,-4.59765 4.5973383,4.5973383 0 0 0 -4.597135,-4.59713 z m 10.638625,0 a 4.5973383,4.5973383 0 0 0 -4.59765,4.59713 4.5973383,4.5973383 0 0 0 4.59765,4.59765 4.5973383,4.5973383 0 0 0 4.59765,-4.59765 4.5973383,4.5973383 0 0 0 -4.59765,-4.59713 z m -10.638625,10.73474 a 4.5973383,4.5973383 0 0 0 -4.597651,4.59765 4.5973383,4.5973383 0 0 0 4.597651,4.59765 4.5973383,4.5973383 0 0 0 4.597135,-4.59765 4.5973383,4.5973383 0 0 0 -4.597135,-4.59765 z m 10.638625,0 a 4.5973383,4.5973383 0 0 0 -4.59765,4.59765 4.5973383,4.5973383 0 0 0 4.59765,4.59765 4.5973383,4.5973383 0 0 0 4.59765,-4.59765 4.5973383,4.5973383 0 0 0 -4.59765,-4.59765 z" />
  </g>
</svg>
